<svg width="512" height="512" viewBox="0 0 512 512" fill="none" xmlns="http://www.w3.org/2000/svg">

  <defs>
    <linearGradient id="grad" x1="0%" y1="0%" x2="100%" y2="100%">
      <stop offset="0%" stop-color="#D946EF"/>
      <stop offset="100%" stop-color="#2563EB"/>
    </linearGradient>
  </defs>

  <!-- Background -->
  <rect width="512" height="512" rx="90" fill="black"/>

  <!-- Glow -->
  <circle cx="256" cy="256" r="140" fill="url(#grad)" opacity="0.18"/>

  <!-- D Shape -->
  <path
    d="M140 140H210C320 140 380 210 380 256C380 302 320 372 210 372H140V140Z"
    fill="url(#grad)"
  />

  <!-- Inner Cut -->
  <path
    d="M190 190H220C280 190 320 220 320 256C320 292 280 322 220 322H190V190Z"
    fill="black"
  />

  <!-- Audio Bars -->
  <rect x="200" y="240" width="12" height="32" rx="6" fill="url(#grad)"/>
  <rect x="222" y="215" width="12" height="82" rx="6" fill="url(#grad)"/>
  <rect x="244" y="190" width="12" height="132" rx="6" fill="url(#grad)"/>
  <rect x="266" y="215" width="12" height="82" rx="6" fill="url(#grad)"/>
  <rect x="288" y="240" width="12" height="32" rx="6" fill="url(#grad)"/>

</svg>